<?xml version="1.0" encoding="UTF-8"?>
<svg id="Camada_2" data-name="Camada 2" xmlns="http://www.w3.org/2000/svg" xmlns:xlink="http://www.w3.org/1999/xlink" viewBox="0 0 1337.2 155">
  <defs>
    <style>
      .cls-1 {
        fill: url(#Gradiente_sem_nome_9);
      }

      .cls-2 {
        fill: #fff;
      }

      .cls-3 {
        fill: #f3c;
      }

      .cls-4 {
        fill: #90f;
      }
    </style>
    <linearGradient id="Gradiente_sem_nome_9" data-name="Gradiente sem nome 9" x1="1286.71" y1="152.36" x2="1205.96" y2="12.49" gradientUnits="userSpaceOnUse">
      <stop offset="0" stop-color="#90f"/>
      <stop offset=".5" stop-color="#fff"/>
      <stop offset="1" stop-color="#f3c"/>
    </linearGradient>
  </defs>
  <g id="logo_horizontal" data-name="logo horizontal">
    <g>
      <g id="logo">
        <g id="isotipo">
          <path id="shape" class="cls-3" d="M51.67,0h0C80.18,0,103.33,23.15,103.33,51.67v103.33H0V51.67C0,23.15,23.15,0,51.67,0Z"/>
          <circle id="circle" class="cls-4" cx="155" cy="51.67" r="51.67"/>
        </g>
        <g id="logotipo">
          <g>
            <path class="cls-2" d="M349.1,83.67l-59.86,5.28c.09,6.5,1.37,11.72,3.82,15.65,2.45,3.93,6.18,5.89,11.18,5.89,1.6,0,3.32-.16,5.16-.47,1.84-.32,3.37-.75,4.6-1.29.85-4.42,1.42-9.26,1.7-14.5l33.25.13c-.66,8.94-2.62,16.31-5.87,22.09-3.26,5.78-8.3,10.19-15.14,13.21-6.84,3.03-15.87,4.54-27.1,4.54-15,0-26.44-3.79-34.32-11.38-7.88-7.59-11.82-19.19-11.82-34.82s4.17-27.26,12.52-34.89c8.35-7.63,20.78-11.45,37.29-11.45,14.91,0,25.85,3.28,32.83,9.82,6.98,6.55,10.9,16.96,11.75,31.23h-.42l.42.95ZM296.04,65.65c-1.98.45-3.77,1.08-5.38,1.9-.76,6.77-1.18,11.7-1.27,14.77l26.04-2.3c-1.42-10.03-5.99-15.04-13.73-15.04-1.79,0-3.68.23-5.66.68Z"/>
            <path class="cls-2" d="M361.7,88.14c0-20.5-.19-35.41-.57-44.71h35.24l-2.97,23.03h1.98c2.26-7.5,6.32-13.5,12.17-18.02,5.85-4.52,12.5-6.77,19.95-6.77,6.89,0,12.33,1.35,16.34,4.07,4.01,2.71,6.89,6.69,8.63,11.92,1.74,5.24,2.76,12.01,3.04,20.32.09,3.79.14,8.15.14,13.08s.05,9.78.14,14.57c0,12.38.09,21.36.28,26.96h-34.95c.19-7.5.28-16.17.28-26.02v-19.92c0-6.95-1.06-12.31-3.18-16.06-2.12-3.75-5.35-5.62-9.69-5.62-2.08,0-4.48.59-7.22,1.76-2.74,1.17-4.58,2.53-5.52,4.06v20.19c0,18.88.19,32.75.57,41.6h-35.24c.38-9.21.57-24.03.57-44.44Z"/>
            <path class="cls-2" d="M480.14,122.69c-8.02-7.68-12.03-19.28-12.03-34.82,0-30.8,16.6-46.2,49.81-46.2,9.81,0,17.83,1.31,24.06,3.93,6.23,2.62,10.97,6.69,14.22,12.19,3.25,5.51,5.31,12.78,6.16,21.81l-33.11,2.85c-1.23-11.74-5.94-17.61-14.15-17.61-1.7,0-3.56.23-5.59.68-2.03.45-3.8,1.08-5.31,1.9-1.04,7.14-1.56,14-1.56,20.6s1.22,12.11,3.68,16.26c2.45,4.16,6.27,6.23,11.46,6.23,1.6,0,3.35-.16,5.24-.47,1.89-.32,3.4-.75,4.53-1.29.75-3.88,1.37-8.72,1.84-14.5h33.26c-.66,9.4-2.67,17-6.01,22.83-3.35,5.83-8.44,10.14-15.28,12.94-6.84,2.8-15.87,4.2-27.1,4.2-14.72,0-26.09-3.84-34.1-11.52Z"/>
            <path class="cls-2" d="M578.28,128.52c-5.14-3.88-7.71-9.17-7.71-15.85,0-5.24,2-9.73,6.01-13.48,4.01-3.75,9.36-6.57,16.06-8.47,6.7-1.9,14.06-2.85,22.08-2.85,4.53,0,10.09.27,16.7.81v-2.03c0-6.41-1.16-11.58-3.47-15.51-2.31-3.93-6.63-5.89-12.95-5.89-2.45.27-4.62.9-6.51,1.9-1.23,4.61-2.08,9.94-2.55,15.99l-32.69-4.07c.47-8.22,2.83-15.13,7.08-20.73,4.25-5.6,9.81-9.8,16.7-12.6,6.89-2.8,14.48-4.2,22.78-4.2,11.41,0,20.47,1.65,27.17,4.95,6.7,3.3,11.46,7.99,14.29,14.09,2.83,6.1,4.29,13.71,4.39,22.83v25.88c0,11.47.05,19.24.14,23.31h-34.67l2.55-23.31h-1.98c-1.7,7.14-5.33,13.1-10.9,17.89-5.57,4.79-12.45,7.18-20.66,7.18-9.43,0-16.72-1.94-21.86-5.83ZM624.41,109.01c2.97-1.9,5.31-3.79,7-5.69v-9.08c-1.04-.09-2.97-.14-5.8-.14-6.23,0-11.37.86-15.42,2.57-4.06,1.72-6.09,4.29-6.09,7.72,0,2.44,1.04,4.29,3.11,5.55,2.07,1.27,4.81,1.9,8.21,1.9,3.02,0,6.01-.95,8.99-2.85Z"/>
            <path class="cls-2" d="M682.36,88.14c0-20.5-.19-35.41-.57-44.71h35.24l-2.97,23.03h1.98c2.26-7.5,6.32-13.5,12.17-18.02,5.85-4.52,12.5-6.77,19.95-6.77,6.89,0,12.33,1.35,16.34,4.07,4.01,2.71,6.89,6.69,8.63,11.92,1.74,5.24,2.76,12.01,3.04,20.32.09,3.79.14,8.15.14,13.08s.05,9.78.14,14.57c0,12.38.09,21.36.28,26.96h-34.95c.19-7.5.28-16.17.28-26.02v-19.92c0-6.95-1.06-12.31-3.18-16.06-2.12-3.75-5.35-5.62-9.69-5.62-2.08,0-4.48.59-7.22,1.76-2.74,1.17-4.58,2.53-5.52,4.06v20.19c0,18.88.19,32.75.57,41.6h-35.24c.38-9.21.57-24.03.57-44.44Z"/>
            <path class="cls-2" d="M811.7,129.74c-5.09-2.62-8.66-6.66-10.68-12.13-2.03-5.46-3.04-12.98-3.04-22.56v-28.45l-11.18.54v-23.98c2.17,0,5.8.14,10.9.41,0-1.53-.05-2.66-.14-3.39l-.14-11.25c11.13,0,23.02-.36,35.66-1.08l-.28,15.72,20.66-.54c-.38,5.42-.57,9.44-.57,12.06,0,1.35-.1,3.48-.28,6.37-.19,2.53-.28,4.47-.28,5.83l-19.81-.68.14,27.64c0,4.7.23,8.29.71,10.77.47,2.49,1.37,3.73,2.69,3.73,5.47,0,10.57-.22,15.28-.68-.57,10.84-.85,18.88-.85,24.12-5.66.99-11.37,1.49-17.12,1.49-9.34,0-16.56-1.31-21.65-3.93Z"/>
            <path class="cls-2" d="M865.83,42.07c-3.16-1.9-4.74-4.97-4.74-9.21s1.58-7.34,4.74-9.28c3.16-1.94,8.56-2.91,16.2-2.91s13.04.97,16.2,2.91c3.16,1.94,4.74,5.04,4.74,9.28s-1.58,7.32-4.74,9.21c-3.16,1.9-8.56,2.85-16.2,2.85s-13.04-.95-16.2-2.85ZM865.05,94.78c0-17.89-.19-32.93-.57-45.12,6.79.9,12.64,1.35,17.55,1.35,3.4,0,6.6-.16,9.62-.47,3.02-.32,5.66-.61,7.92-.88-.19,11.92-.28,26.96-.28,45.12,0,13.64.09,26.24.28,37.8h-35.1c.38-12.01.57-24.61.57-37.8Z"/>
            <path class="cls-2" d="M908.21,43.43h35.66c.94,6.59,3.11,19.06,6.51,37.4,3.58,19.06,5.8,32.07,6.65,39.02h1.7c.85-6.14,2.88-18.11,6.09-35.91,3.11-17.16,5.47-30.67,7.08-40.51h35.52c-9.34,39.02-15.94,68.74-19.81,89.16h-59.43c-4.06-21.41-10.71-51.13-19.95-89.16Z"/>
            <path class="cls-2" d="M1019.8,128.52c-5.14-3.88-7.71-9.17-7.71-15.85,0-5.24,2-9.73,6.01-13.48,4.01-3.75,9.36-6.57,16.06-8.47,6.7-1.9,14.06-2.85,22.08-2.85,4.53,0,10.09.27,16.7.81v-2.03c0-6.41-1.16-11.58-3.47-15.51-2.31-3.93-6.63-5.89-12.95-5.89-2.45.27-4.62.9-6.51,1.9-1.23,4.61-2.08,9.94-2.55,15.99l-32.69-4.07c.47-8.22,2.83-15.13,7.08-20.73,4.25-5.6,9.81-9.8,16.7-12.6,6.89-2.8,14.48-4.2,22.78-4.2,11.41,0,20.47,1.65,27.17,4.95,6.7,3.3,11.46,7.99,14.29,14.09,2.83,6.1,4.29,13.71,4.39,22.83v25.88c0,11.47.05,19.24.14,23.31h-34.67l2.55-23.31h-1.98c-1.7,7.14-5.33,13.1-10.9,17.89-5.57,4.79-12.45,7.18-20.66,7.18-9.43,0-16.72-1.94-21.86-5.83ZM1065.93,109.01c2.97-1.9,5.31-3.79,7-5.69v-9.08c-1.04-.09-2.97-.14-5.8-.14-6.23,0-11.37.86-15.42,2.57-4.06,1.72-6.09,4.29-6.09,7.72,0,2.44,1.04,4.29,3.11,5.55,2.07,1.27,4.81,1.9,8.21,1.9,3.02,0,6.01-.95,8.99-2.85Z"/>
          </g>
        </g>
      </g>
      <g>
        <path class="cls-1" d="M1301.42,35.85c14.58,0,26.45,11.86,26.45,26.45v40.25c0,14.58-11.86,26.45-26.45,26.45h-110.17c-14.58,0-26.45-11.86-26.45-26.45v-40.25c0-14.58,11.86-26.45,26.45-26.45h110.17M1301.42,26.52h-110.17c-19.76,0-35.78,16.02-35.78,35.78v40.25c0,19.76,16.02,35.78,35.78,35.78h110.17c19.76,0,35.78-16.02,35.78-35.78v-40.25c0-19.76-16.02-35.78-35.78-35.78h0Z"/>
        <g>
          <path class="cls-2" d="M1202.88,98.89v-32.94h12.36c2.53,0,4.66.47,6.38,1.41,1.72.94,3.02,2.24,3.9,3.89s1.33,3.52,1.33,5.62-.45,3.98-1.34,5.63c-.89,1.64-2.21,2.93-3.95,3.87-1.74.94-3.88,1.4-6.41,1.4h-8.18v-4.91h7.36c1.49,0,2.71-.25,3.66-.76s1.65-1.22,2.1-2.12c.45-.91.67-1.94.67-3.11s-.22-2.21-.67-3.11c-.45-.89-1.15-1.58-2.1-2.08-.95-.49-2.18-.74-3.68-.74h-5.46v27.94h-5.97Z"/>
          <path class="cls-2" d="M1231.45,98.89v-32.94h12.36c2.53,0,4.66.44,6.38,1.33,1.72.88,3.02,2.12,3.9,3.7.88,1.58,1.33,3.42,1.33,5.52s-.45,3.94-1.34,5.48c-.89,1.55-2.21,2.74-3.95,3.58-1.74.84-3.88,1.26-6.41,1.26h-8.78v-4.93h7.96c1.49,0,2.71-.21,3.66-.62.95-.41,1.65-1.02,2.1-1.82.45-.8.67-1.79.67-2.95s-.23-2.16-.69-3c-.46-.83-1.16-1.47-2.1-1.9-.94-.43-2.17-.65-3.67-.65h-5.46v27.94h-5.97ZM1249.95,98.89l-7.98-14.94h6.5l8.16,14.94h-6.68Z"/>
          <path class="cls-2" d="M1274.67,99.33c-2.87,0-5.46-.67-7.75-2.01-2.29-1.34-4.1-3.27-5.42-5.79-1.32-2.52-1.98-5.55-1.98-9.09s.66-6.59,1.98-9.12c1.32-2.53,3.12-4.46,5.42-5.8,2.29-1.34,4.87-2.01,7.75-2.01s5.47.67,7.74,2.01c2.27,1.34,4.07,3.28,5.39,5.8,1.33,2.53,1.99,5.57,1.99,9.12s-.66,6.57-1.99,9.09c-1.33,2.52-3.12,4.45-5.39,5.79-2.27,1.34-4.85,2.01-7.74,2.01ZM1274.67,93.98c1.78,0,3.36-.44,4.73-1.33s2.45-2.18,3.23-3.9c.78-1.72,1.17-3.82,1.17-6.31s-.39-4.62-1.17-6.34c-.78-1.72-1.86-3.03-3.23-3.91-1.37-.88-2.95-1.33-4.73-1.33s-3.36.44-4.74,1.33c-1.38.88-2.46,2.19-3.24,3.91-.78,1.72-1.17,3.84-1.17,6.34s.39,4.59,1.17,6.31c.78,1.72,1.86,3.02,3.24,3.9,1.38.88,2.96,1.33,4.74,1.33Z"/>
        </g>
      </g>
    </g>
  </g>
</svg>